<svg width="983" height="254" viewBox="0 0 983 254" fill="none" xmlns="http://www.w3.org/2000/svg">
<path d="M21.3788 0C23.1502 1.18101 24.8805 3.22915 26.4227 4.73574C31.0555 9.30061 35.647 13.91 40.1916 18.5636L55.4674 33.9432C58.8486 37.3348 62.3475 40.6475 65.4703 44.2823C69.5595 40.5171 74.3097 37.1813 78.6722 33.7139C88.8159 25.6357 99.0567 17.6737 109.382 9.82996C100.596 25.612 90.916 40.9101 81.7889 56.5021L114.503 89.4904C126.697 101.719 139.041 113.849 150.738 126.558C157.535 134.094 164.251 141.705 170.878 149.391C190.99 172.335 210.831 195.514 230.399 218.921C231.926 220.693 233.431 222.471 234.876 224.311C231.368 229.868 227.432 235.184 223.595 240.518C220.352 245.028 217.197 249.642 213.68 253.943C203.907 244.926 194.888 234.751 185.705 225.126L129.076 165.207C95.9516 130.657 63.556 95.4109 31.9151 59.4968L11.3542 36.5366C7.50895 32.2178 3.53128 27.933 0 23.3514C2.67326 19.8357 5.97229 16.6089 8.95685 13.3468C13.049 8.87299 17.0634 4.26159 21.3788 0Z" fill="#3337AD"/>
<path d="M322.657 66.6989L318.639 54.5785H373.114V69.0702H355.329V114.193H338.598V69.0702H325.819C324.984 69.0702 324.282 68.7848 323.711 68.214C323.184 67.6431 322.832 67.138 322.657 66.6989ZM401.109 114.192H394.587V67.8843C393.226 65.7325 391.975 63.5808 390.833 61.4289C389.691 59.321 388.725 57.0375 387.935 54.5783H411.253V92.7186L431.87 62.3526C433.232 60.0691 434.747 58.3784 436.415 57.2806C438.04 56.2267 439.818 55.5241 441.751 55.1728C443.683 54.7775 445.769 54.5799 448.008 54.5799H454.595V114.193H437.93V76.0527L417.247 106.552C415.666 108.879 413.975 110.592 412.175 111.69C410.418 112.743 408.618 113.424 406.773 113.732C404.929 114.039 403.041 114.192 401.109 114.192ZM474.556 54.5791H538.451V114.192H521.786V67.8843H497.677V114.192H480.946V67.8843C479.892 65.6007 478.728 63.4489 477.455 61.4289C476.225 59.3649 475.259 57.0823 474.556 54.5791ZM565.128 54.5791H608.406L623.029 114.192H606.034L601.687 97.2632H601.358C600.787 98.8441 599.996 100.205 598.986 101.347C597.976 102.489 596.571 103.06 594.771 103.06H578.83L575.866 114.192H559.596L571.452 67.8842C569.608 65.6446 568.291 63.4928 567.5 61.4288C566.666 59.3209 565.874 57.0383 565.128 54.5791ZM587.787 67.0288L581.2 92.389H600.566L593.979 67.0288H587.787Z" fill="#000402"/>
<path d="M324.159 139.759H367.437L382.06 199.372H365.066L360.718 182.443H360.323C359.752 184.024 358.983 185.385 358.017 186.527C357.007 187.669 355.602 188.24 353.802 188.24H337.861L334.897 199.372H318.627L330.484 153.064C328.639 150.824 327.3 148.672 326.465 146.608C325.675 144.501 324.905 142.218 324.159 139.759ZM346.819 152.208L340.232 177.569H359.598L353.011 152.208H346.819ZM437.194 167.359V153.065H420.001V199.373H403.402V153.065C401.953 151.133 400.723 149.047 399.713 146.807C398.703 144.568 397.759 142.218 396.881 139.759H453.267V155.7C453.267 157.325 453.026 158.906 452.543 160.443C452.147 161.321 451.357 162.089 450.171 162.748C449.029 163.451 447.668 164.065 446.087 164.592C444.55 165.119 442.969 165.624 441.344 166.107C439.764 166.547 438.38 166.964 437.194 167.359ZM526.383 199.373H475.4V153.065C474.083 151.089 472.897 148.959 471.843 146.675C470.833 144.392 469.889 142.086 469.011 139.759H526.383L523.946 147.4C523.287 149.069 522.497 150.408 521.575 151.418C520.653 152.472 519.182 152.999 517.161 152.999H492.065V163.341H519.006C518.83 164.307 518.567 165.47 518.215 166.832C517.864 168.149 517.403 169.467 516.832 170.784C516.261 172.101 515.58 173.199 514.79 174.078C514 174.956 513.033 175.395 511.892 175.395H496.807C495.753 175.395 494.941 175.066 494.37 174.407C493.799 173.748 493.382 173.002 493.118 172.167C492.855 171.333 492.614 170.674 492.394 170.191H492.065V186.198H518.61C519.752 186.198 520.718 186.659 521.509 187.581C522.299 188.459 522.98 189.601 523.551 191.006C524.078 192.412 524.561 193.861 525 195.354C525.483 196.847 525.944 198.187 526.383 199.373ZM588.237 162.617V139.76H604.968V199.373H588.237V175.857H568.739C567.949 175.857 567.158 175.506 566.368 174.803C565.578 174.057 565.029 173.135 564.721 172.037H564.128V199.373H547.529V153.065C546.212 151.133 545.048 149.047 544.038 146.808C543.028 144.568 542.084 142.219 541.206 139.76H564.128V162.617L588.237 162.617ZM627.956 151.88L623.938 139.76H678.347V154.252H660.562V199.374H643.896V154.252H631.117C630.239 154.252 629.537 153.966 629.01 153.395C628.483 152.825 628.132 152.319 627.956 151.88ZM747.708 163.078L734.929 167.36V152.868H718.396C717.518 152.868 716.793 153.176 716.222 153.79C715.651 154.361 715.366 155.086 715.366 155.964V182.971C715.366 183.805 715.695 184.53 716.354 185.145C717.013 185.804 717.759 186.133 718.593 186.133H751.463C751.068 187.362 750.651 188.724 750.212 190.217C749.816 191.754 749.289 193.203 748.631 194.564C748.016 195.97 747.225 197.133 746.259 198.055C745.293 198.934 744.086 199.373 742.636 199.373H707.462C705.003 199.373 702.918 198.539 701.205 196.87C699.492 195.157 698.636 193.071 698.636 190.612V148.52C698.636 146.104 699.492 144.04 701.205 142.328C702.917 140.615 705.003 139.759 707.462 139.759H751.07V157.807C751.07 158.905 750.741 159.937 750.082 160.903C749.467 161.913 748.674 162.639 747.708 163.078ZM773.596 151.88L769.643 139.76H824.052V154.252H806.267V199.374H789.536V154.252H776.757C775.923 154.252 775.242 153.966 774.715 153.395C774.144 152.825 773.771 152.319 773.596 151.88ZM891.899 199.374H845.262V153.066C845.262 153.066 844.998 152.605 844.471 151.682C843.944 150.76 843.308 149.618 842.561 148.257C841.815 146.852 841.09 145.381 840.387 143.844C839.729 142.307 839.224 140.945 838.872 139.76H894.073C894.952 139.76 895.786 140.067 896.577 140.682C897.411 141.253 898.048 141.977 898.487 142.856C898.97 143.69 899.124 144.502 898.948 145.293L895.588 160.97C895.369 162.244 894.776 163.364 893.81 164.33C892.8 165.296 891.548 165.999 890.055 166.438H898.685C899.519 166.438 900.331 166.723 901.122 167.294C901.956 167.909 902.615 168.633 903.098 169.468C903.581 170.346 903.735 171.18 903.559 171.971L899.936 192.72C899.76 193.862 899.255 194.96 898.421 196.014C897.587 197.024 896.577 197.836 895.391 198.451C894.249 199.066 893.085 199.374 891.899 199.374ZM885.576 175.397H868.779C867.813 175.397 866.824 175.243 865.815 174.935C864.849 174.672 864.124 174.167 863.641 173.42L861.862 170.325V186.924H883.402C883.534 186.924 883.688 186.902 883.863 186.858C884.039 186.77 884.149 186.529 884.193 186.133L886.103 176.121C886.103 176.033 886.037 175.879 885.905 175.66C885.774 175.484 885.664 175.397 885.576 175.397ZM879.911 152.54H861.862V163.211H877.408C877.628 163.211 877.803 163.101 877.935 162.881C878.067 162.706 878.177 162.53 878.264 162.354L880.438 153.396C880.438 153.22 880.394 153.044 880.306 152.869C880.218 152.649 880.087 152.54 879.911 152.54ZM925.626 189.954V149.246C925.626 146.524 926.351 144.482 927.8 143.12C929.249 141.759 931.071 140.859 933.267 140.42C935.507 139.98 937.79 139.761 940.118 139.761H973.58C975.337 139.761 976.918 140.2 978.323 141.078C979.772 141.913 980.914 143.033 981.748 144.438C982.582 145.887 982.999 147.49 982.999 149.246V189.954C982.999 192.677 982.275 194.697 980.826 196.014C979.377 197.376 977.554 198.276 975.358 198.715C973.163 199.154 970.901 199.374 968.574 199.374H935.045C933.376 199.374 931.817 198.957 930.368 198.122C928.919 197.288 927.755 196.146 926.877 194.697C926.043 193.248 925.626 191.667 925.626 189.954ZM942.225 156.032V183.105C942.225 183.895 942.533 184.62 943.148 185.279C943.718 185.893 944.421 186.201 945.255 186.201H963.37C964.204 186.201 964.907 185.893 965.478 185.279C966.048 184.62 966.334 183.895 966.334 183.105V156.032C966.334 155.242 966.048 154.539 965.478 153.924C964.907 153.353 964.204 153.068 963.37 153.068H945.255C944.421 153.068 943.718 153.353 943.148 153.924C942.533 154.539 942.225 155.242 942.225 156.032Z" fill="#000402"/>
</svg>
